<?xml version="1.0" encoding="UTF-8" standalone="no"?>
<!-- Created with Inkscape (http://www.inkscape.org/) -->

<svg
   width="103mm"
   height="101mm"
   viewBox="0 0 103 101"
   version="1.1"
   id="svg1"
   xml:space="preserve"
   sodipodi:docname="synRM_rotor2_fixed.svg"
   inkscape:version="1.4.2 (f4327f4, 2025-05-13)"
   xmlns:inkscape="http://www.inkscape.org/namespaces/inkscape"
   xmlns:sodipodi="http://sodipodi.sourceforge.net/DTD/sodipodi-0.dtd"
   xmlns="http://www.w3.org/2000/svg"
   xmlns:svg="http://www.w3.org/2000/svg"><sodipodi:namedview
     id="namedview1"
     pagecolor="#ffffff"
     bordercolor="#000000"
     borderopacity="0.25"
     inkscape:showpageshadow="2"
     inkscape:pageopacity="0.0"
     inkscape:pagecheckerboard="0"
     inkscape:deskcolor="#d1d1d1"
     inkscape:document-units="mm"
     inkscape:zoom="1.3772587"
     inkscape:cx="181.52"
     inkscape:cy="269.73872"
     inkscape:window-width="1920"
     inkscape:window-height="991"
     inkscape:window-x="-9"
     inkscape:window-y="-9"
     inkscape:window-maximized="1"
     inkscape:current-layer="layer1"
     showgrid="false" /><defs
     id="defs1"><rect
       height="79.579498"
       id="rect13"
       width="85.227074"
       x="135.02843"
       y="270.57028" /><rect
       height="27.724468"
       id="rect12"
       width="23.61714"
       x="232.8342"
       y="273.9075" /><rect
       height="12.16184"
       id="rect9"
       width="14.70312"
       x="298.14661"
       y="264.29312" /><rect
       height="30.495359"
       id="rect6"
       width="22.145439"
       x="20.33024"
       y="262.47791" /><rect
       height="76.60144"
       id="rect1"
       width="55.54512"
       x="132.87263"
       y="359.04657" /><rect
       height="76.60144"
       id="rect1-4"
       width="55.54512"
       x="132.87263"
       y="359.04657" /><rect
       height="76.60144"
       id="rect1-4-6"
       width="55.54512"
       x="132.87263"
       y="359.04657" /><rect
       height="76.60144"
       id="rect1-4-1"
       width="55.54512"
       x="132.87263"
       y="359.04657" /><rect
       height="27.724468"
       id="rect12-0"
       width="23.61714"
       x="232.8342"
       y="273.9075" /><rect
       height="27.724468"
       id="rect12-4"
       width="23.61714"
       x="232.8342"
       y="273.9075" /><rect
       height="76.60144"
       id="rect1-4-7"
       width="55.54512"
       x="132.87263"
       y="359.04657" /><rect
       height="76.60144"
       id="rect1-4-9"
       width="55.54512"
       x="132.87263"
       y="359.04657" /><rect
       height="76.60144"
       id="rect1-7"
       width="55.54512"
       x="132.87263"
       y="359.04657" /><rect
       x="502.12094"
       y="365.55225"
       width="86.253906"
       height="330.12653"
       id="rect2" /><rect
       x="419.46094"
       y="566.29797"
       width="84.713654"
       height="39.533039"
       id="rect25" /><rect
       x="652.74591"
       y="258.48447"
       width="30.495359"
       height="15.61072"
       id="rect18" /><rect
       x="305.996"
       y="435.63354"
       width="20.793352"
       height="27.724468"
       id="rect5" /><linearGradient
       id="swatch4"
       inkscape:swatch="solid"><stop
         style="stop-color:#000000;stop-opacity:1;"
         offset="0"
         id="stop4" /></linearGradient><rect
       x="305.996"
       y="435.63354"
       width="20.793352"
       height="27.724468"
       id="rect5-4" /><rect
       x="305.996"
       y="435.63354"
       width="20.793352"
       height="27.724468"
       id="rect5-3" /><rect
       x="305.996"
       y="435.63354"
       width="45.180618"
       height="25.670803"
       id="rect5-4-4" /><rect
       x="305.996"
       y="435.63354"
       width="20.793352"
       height="27.724468"
       id="rect5-7" /><rect
       x="305.996"
       y="435.63354"
       width="44.410492"
       height="18.226271"
       id="rect5-4-2" /><rect
       x="305.996"
       y="435.63354"
       width="20.793352"
       height="27.724468"
       id="rect5-6" /><rect
       x="305.996"
       y="435.63354"
       width="39.276333"
       height="26.184219"
       id="rect5-4-1" /><rect
       x="305.996"
       y="435.63354"
       width="28.494595"
       height="27.981176"
       id="rect5-5" /><rect
       x="305.996"
       y="435.63354"
       width="20.793352"
       height="27.724468"
       id="rect5-4-3" /><rect
       x="305.996"
       y="435.63354"
       width="59.812977"
       height="32.345211"
       id="rect5-4-1-8" /><rect
       x="305.996"
       y="435.63354"
       width="96.265518"
       height="78.039246"
       id="rect5-4-1-8-2" /><rect
       x="305.996"
       y="435.63354"
       width="96.265518"
       height="78.039246"
       id="rect5-4-1-8-2-8" /><rect
       x="305.996"
       y="435.63354"
       width="20.793352"
       height="27.724468"
       id="rect5-3-6" /><rect
       x="305.996"
       y="435.63354"
       width="96.265518"
       height="78.039246"
       id="rect5-4-1-8-2-9" /><rect
       x="305.996"
       y="435.63354"
       width="96.265518"
       height="78.039246"
       id="rect5-4-1-8-2-9-5" /><rect
       x="305.996"
       y="435.63354"
       width="96.265518"
       height="78.039246"
       id="rect5-4-1-8-2-4" /><rect
       x="305.996"
       y="435.63354"
       width="96.265518"
       height="78.039246"
       id="rect5-4-1-8-2-4-8" /><rect
       x="305.996"
       y="435.63354"
       width="96.265518"
       height="78.039246"
       id="rect5-4-1-8-2-4-5" /><rect
       x="305.996"
       y="435.63354"
       width="96.265518"
       height="78.039246"
       id="rect5-4-1-8-2-4-5-5" /><rect
       x="305.996"
       y="435.63354"
       width="96.265518"
       height="78.039246"
       id="rect5-4-1-8-2-4-5-5-2" /><rect
       x="305.996"
       y="435.63354"
       width="96.265518"
       height="78.039246"
       id="rect5-4-1-8-2-4-5-5-4" /><rect
       x="305.996"
       y="435.63354"
       width="96.265518"
       height="78.039246"
       id="rect5-4-1-8-2-4-5-5-3" /><rect
       x="305.996"
       y="435.63354"
       width="308.30637"
       height="169.42732"
       id="rect5-4-1-8-2-4-5-5-45" /><rect
       x="305.996"
       y="435.63354"
       width="96.265518"
       height="78.039246"
       id="rect5-4-1-8-2-6" /><rect
       x="305.996"
       y="435.63354"
       width="96.265518"
       height="78.039246"
       id="rect5-4-1-8-2-6-0" /><rect
       x="305.996"
       y="435.63354"
       width="96.265518"
       height="78.039246"
       id="rect5-4-1-8-2-4-3" /><rect
       x="305.996"
       y="435.63354"
       width="96.265518"
       height="78.039246"
       id="rect5-4-1-8-2-4-3-7" /><rect
       x="305.996"
       y="435.63354"
       width="96.265518"
       height="78.039246"
       id="rect5-4-1-8-2-4-3-2" /><rect
       x="305.996"
       y="435.63354"
       width="96.265518"
       height="78.039246"
       id="rect5-4-1-8-2-4-3-7-4" /><rect
       x="305.996"
       y="435.63354"
       width="20.793352"
       height="27.724468"
       id="rect5-3-1" /><rect
       x="305.996"
       y="435.63354"
       width="96.265518"
       height="78.039246"
       id="rect5-4-1-8-2-4-85" /><rect
       x="305.996"
       y="435.63354"
       width="96.265518"
       height="78.039246"
       id="rect5-4-1-8-2-0" /><rect
       x="305.996"
       y="435.63354"
       width="96.265518"
       height="78.039246"
       id="rect5-4-1-8-2-0-5" /><rect
       x="305.996"
       y="435.63354"
       width="96.265518"
       height="78.039246"
       id="rect5-4-1-8-2-4-9" /><rect
       x="305.996"
       y="435.63354"
       width="96.265518"
       height="78.039246"
       id="rect5-4-1-8-2-4-8-2" /><rect
       x="305.996"
       y="435.63354"
       width="204.45145"
       height="79.128365"
       id="rect5-4-1-8-2-6-0-5" /><rect
       x="305.996"
       y="435.63354"
       width="136.92599"
       height="78.765327"
       id="rect5-4-1-8-2-6-0-5-6" /><rect
       x="305.996"
       y="435.63354"
       width="20.793352"
       height="27.724468"
       id="rect5-3-1-3" /><rect
       x="305.996"
       y="435.63354"
       width="96.265518"
       height="78.039246"
       id="rect5-4-1-8-2-6-0-0" /><rect
       x="305.996"
       y="435.63354"
       width="96.265518"
       height="78.039246"
       id="rect5-4-1-8-2-6-0-0-8" /><rect
       x="305.996"
       y="435.63354"
       width="96.265518"
       height="78.039246"
       id="rect5-4-1-8-2-6-0-0-1" /><rect
       x="305.996"
       y="435.63354"
       width="96.265518"
       height="78.039246"
       id="rect5-4-1-8-2-6-0-0-1-1" /><rect
       x="305.996"
       y="435.63354"
       width="96.265518"
       height="78.039246"
       id="rect5-4-1-8-2-6-0-0-1-1-6" /><rect
       x="305.996"
       y="435.63354"
       width="96.265518"
       height="78.039246"
       id="rect5-4-1-8-2-6-0-0-1-1-1" /><rect
       x="305.996"
       y="435.63354"
       width="96.265518"
       height="78.039246"
       id="rect5-4-1-8-2-6-0-0-1-1-6-7" /><rect
       x="305.996"
       y="435.63354"
       width="20.793352"
       height="27.724468"
       id="rect5-36" /><rect
       x="305.996"
       y="435.63354"
       width="20.793352"
       height="27.724468"
       id="rect5-4-30" /><rect
       x="305.996"
       y="435.63354"
       width="96.265518"
       height="78.039246"
       id="rect5-4-1-8-2-4-5-5-4-5" /><rect
       x="305.996"
       y="435.63354"
       width="96.265518"
       height="78.039246"
       id="rect5-4-1-8-2-4-5-5-3-5" /><rect
       x="305.996"
       y="435.63354"
       width="96.265518"
       height="78.039246"
       id="rect5-4-1-8-2-4-5-5-4-0" /><rect
       x="305.996"
       y="435.63354"
       width="96.265518"
       height="78.039246"
       id="rect5-4-1-8-2-4-5-5-3-1" /><rect
       x="305.996"
       y="435.63354"
       width="96.265518"
       height="78.039246"
       id="rect5-4-1-8-2-4-5-5-4-5-8" /><rect
       x="305.996"
       y="435.63354"
       width="96.265518"
       height="78.039246"
       id="rect5-4-1-8-2-4-5-5-3-5-3" /><rect
       x="305.996"
       y="435.63354"
       width="96.265518"
       height="78.039246"
       id="rect5-4-1-8-2-6-4" /><rect
       x="305.996"
       y="435.63354"
       width="96.265518"
       height="78.039246"
       id="rect5-4-1-8-2-4-3-2-5" /><rect
       x="305.996"
       y="435.63354"
       width="96.265518"
       height="78.039246"
       id="rect5-4-1-8-2-4-3-7-4-8" /><rect
       x="305.996"
       y="435.63354"
       width="20.793352"
       height="27.724468"
       id="rect5-3-1-3-1" /><rect
       x="305.996"
       y="435.63354"
       width="96.265518"
       height="78.039246"
       id="rect5-4-1-8-2-6-4-4" /><rect
       x="305.996"
       y="435.63354"
       width="96.265518"
       height="78.039246"
       id="rect5-4-1-8-2-6-4-4-9" /><rect
       x="305.996"
       y="435.63354"
       width="169.68402"
       height="68.797752"
       id="rect5-4-1-8-2-6-4-1" /><rect
       x="305.996"
       y="435.63354"
       width="169.68402"
       height="68.797752"
       id="rect5-4-1-8-2-6-4-1-2" /><rect
       x="305.996"
       y="435.63354"
       width="169.68402"
       height="68.797752"
       id="rect5-4-1-8-2-6-4-1-2-1" /><rect
       x="305.996"
       y="435.63354"
       width="96.265518"
       height="78.039246"
       id="rect5-4-1-8-2-4-5-5-4-5-2" /><rect
       x="305.996"
       y="435.63354"
       width="96.265518"
       height="78.039246"
       id="rect5-4-1-8-2-4-5-5-3-5-8" /><rect
       x="305.996"
       y="435.63354"
       width="96.265518"
       height="78.039246"
       id="rect5-4-1-8-2-4-5-5-4-5-0" /><rect
       x="305.996"
       y="435.63354"
       width="96.265518"
       height="78.039246"
       id="rect5-4-1-8-2-4-5-5-3-5-6" /><rect
       x="305.996"
       y="435.63354"
       width="96.265518"
       height="78.039246"
       id="rect5-4-1-8-2-4-5-5-4-5-8-6" /><rect
       x="305.996"
       y="435.63354"
       width="96.265518"
       height="78.039246"
       id="rect5-4-1-8-2-4-5-5-3-5-3-8" /><rect
       x="419.46094"
       y="566.29797"
       width="84.713654"
       height="39.533039"
       id="rect25-8" /><rect
       x="305.996"
       y="435.63354"
       width="234.58376"
       height="80.217484"
       id="rect5-4-1-8-2-6-4-4-2" /><rect
       x="305.996"
       y="435.63354"
       width="234.58376"
       height="80.217484"
       id="rect5-4-1-8-2-6-4-4-2-8" /><rect
       x="305.996"
       y="435.63354"
       width="234.58376"
       height="80.217484"
       id="rect5-4-1-8-2-6-4-4-2-2" /><rect
       x="305.996"
       y="435.63354"
       width="234.58376"
       height="80.217484"
       id="rect5-4-1-8-2-6-4-4-2-2-9" /><rect
       x="305.996"
       y="435.63354"
       width="96.265518"
       height="78.039246"
       id="rect5-4-1-8-2-6-0-5-2" /><rect
       x="305.996"
       y="435.63354"
       width="204.45145"
       height="79.128365"
       id="rect5-4-1-8-2-6-0-5-0" /><inkscape:perspective
       sodipodi:type="inkscape:persp3d"
       inkscape:vp_x="0 : -47.500087 : 1"
       inkscape:vp_y="0 : 999.99995 : 0"
       inkscape:vp_z="210.00011 : -47.500087 : 1"
       inkscape:persp3d-origin="105.00002 : -97.000005 : 1"
       id="perspective1" /></defs><g
     inkscape:label="Calque 1"
     inkscape:groupmode="layer"
     id="layer1"><text
       id="text6"
       style="text-align:start;writing-mode:lr-tb;direction:ltr;white-space:pre;shape-inside:url(#rect6);display:inline;fill:#ffffff;fill-opacity:0;stroke:#000000;stroke-width:0.944882;stroke-miterlimit:0;stroke-dasharray:none"
       transform="matrix(0.26458333,0,0,0.26458333,-10.564655,28.921228)"
       xml:space="preserve" /><text
       id="text9"
       style="text-align:start;writing-mode:lr-tb;direction:ltr;white-space:pre;shape-inside:url(#rect9);display:inline;fill:#ffffff;fill-opacity:0;stroke:#000000;stroke-width:0.755906;stroke-miterlimit:0;stroke-dasharray:none;stroke-dashoffset:0"
       transform="matrix(0.26458333,0,0,0.26458333,-10.564655,28.921228)"
       xml:space="preserve" /><text
       id="text12"
       style="text-align:start;writing-mode:lr-tb;direction:ltr;white-space:pre;shape-inside:url(#rect12);display:inline;fill:#ffffff;fill-opacity:0;stroke:#ffffff;stroke-width:0.755906;stroke-miterlimit:0;stroke-dasharray:none;stroke-dashoffset:0"
       transform="matrix(0,0.32453233,-0.32453233,0,251.18739,-2.547004)"
       xml:space="preserve" /><text
       id="text13"
       style="text-align:start;writing-mode:lr-tb;direction:ltr;white-space:pre;shape-inside:url(#rect13);display:inline;fill:#ffffff;fill-opacity:0;stroke:#ffffff;stroke-width:1.13386;stroke-miterlimit:0;stroke-dasharray:none;stroke-dashoffset:0"
       transform="matrix(0,0.32453233,-0.32453233,0,251.18739,-2.547006)"
       xml:space="preserve" /><text
       id="text12-1"
       style="text-align:start;writing-mode:lr-tb;direction:ltr;white-space:pre;shape-inside:url(#rect12-0);display:inline;fill:#ffffff;fill-opacity:0;stroke:#ffffff;stroke-width:0.755906;stroke-miterlimit:0;stroke-dasharray:none;stroke-dashoffset:0"
       transform="matrix(0,0.32453233,-0.32453233,0,251.23566,9.431558)"
       xml:space="preserve" /><text
       id="text12-7"
       style="text-align:start;writing-mode:lr-tb;direction:ltr;white-space:pre;shape-inside:url(#rect12-4);display:inline;fill:#ffffff;fill-opacity:0;stroke:#ffffff;stroke-width:0.755906;stroke-miterlimit:0;stroke-dasharray:none;stroke-dashoffset:0"
       transform="matrix(0.32453233,0,0,0.32453233,2.174283,20.721059)"
       xml:space="preserve" /><text
       xml:space="preserve"
       transform="matrix(0.26458333,0,0,0.26458333,-58.584154,-17.149514)"
       id="text4-27-4-5-9"
       style="text-align:start;writing-mode:lr-tb;direction:ltr;white-space:pre;shape-inside:url(#rect5-3-1-3-1);display:inline;fill:#24221c;fill-opacity:1;stroke:none;stroke-width:0.245669;stroke-dasharray:none" /><text
       xml:space="preserve"
       transform="matrix(0.26458333,0,0,0.26458333,-34.39977,-90.791862)"
       id="text4-2-71-8-0-4-2"
       style="text-align:center;writing-mode:lr-tb;direction:ltr;white-space:pre;shape-inside:url(#rect5-4-1-8-2-9-5);display:inline;fill:#24221c;fill-opacity:1;stroke:none;stroke-width:0.245669;stroke-dasharray:none"
       x="14.411133"
       y="0"
       inkscape:transform-center-x="-2.8526682"
       inkscape:transform-center-y="24.858966" /><text
       xml:space="preserve"
       transform="matrix(0.26458333,0,0,0.26458333,-51.813529,1.603385)"
       id="text18"
       style="line-height:0.1;text-align:center;writing-mode:lr-tb;direction:ltr;white-space:pre;shape-inside:url(#rect18);display:inline;fill:#95ee96;fill-opacity:1;stroke:#010101;stroke-width:0.971339;stroke-linecap:round;stroke-linejoin:bevel;stroke-dasharray:none;stroke-opacity:0.841683;paint-order:markers fill stroke" /><text
       xml:space="preserve"
       transform="matrix(0.26458333,0,0,0.26458333,-51.813529,1.603385)"
       id="text1-42"
       style="font-weight:bold;font-size:6.66667px;line-height:0.1;font-family:sans-serif;-inkscape-font-specification:'sans-serif Bold';text-align:center;writing-mode:lr-tb;direction:ltr;white-space:pre;shape-inside:url(#rect2);display:inline;fill:#ffffff;fill-opacity:1;stroke:#ffffff;stroke-width:1.22079;stroke-linecap:round;stroke-linejoin:bevel;stroke-dasharray:4.88315, 4.88315;stroke-opacity:1;paint-order:markers fill stroke" /><g
       id="rotorSynRM"><g
         id="est"
         transform="translate(-54.374396,-95.262776)"
         style="fill:#ffffff"><path
           d="m 138.86284,136.02839 0.0682,-0.0682 h -0.0682 z"
           style="fill:#ffffff;stroke:#020202;stroke-width:0.112173;stroke-linecap:round;stroke-linejoin:bevel;paint-order:markers fill stroke"
           id="path64" /><path
           d="m 124.44202,135.98963 0.0294,-0.0294 h -0.0294 z"
           style="fill:#ffffff;stroke:#020202;stroke-width:0.112173;stroke-linecap:round;stroke-linejoin:bevel;paint-order:markers fill stroke"
           id="path69" /><path
           d="m 134.98969,142.04611 0.0372,-0.0372 h -0.0372 z"
           style="fill:#ffffff;stroke:#020202;stroke-width:0.0762363;stroke-linecap:round;stroke-linejoin:bevel;paint-order:markers fill stroke"
           id="path86" /><path
           id="path87"
           style="fill:#ffffff;stroke:#020202;stroke-width:0.0762363;stroke-linecap:round;stroke-linejoin:bevel;paint-order:markers fill stroke"
           d="m 146.10943,131.54391 a 1.5041033,1.5041033 0 0 0 -1.10536,0.48731 1.5041033,1.5041033 0 0 0 -0.0295,0.03 l -8.24497,8.24497 -1.70274,1.70274 -0.0372,0.0372 v 4.22662 7.06365 l 1.70222,1.70222 8.24498,8.24497 a 1.5041033,1.5041033 0 0 0 0.0295,0.03 1.5041033,1.5041033 0 0 0 1.10535,0.4873 1.5041033,1.5041033 0 0 0 1.50431,-1.5043 1.5041033,1.5041033 0 0 0 -0.60669,-1.20716 l -8.95501,-8.95501 v -8.88628 l 8.99274,-8.99273 a 1.5041033,1.5041033 0 0 0 0.60668,-1.20716 1.5041033,1.5041033 0 0 0 -1.5043,-1.5043 z" /><path
           d="m 129.05104,139.11502 0.0408,-0.0408 h -0.0408 z"
           style="fill:#ffffff;stroke:#020202;stroke-width:0.084115;stroke-linecap:round;stroke-linejoin:bevel;paint-order:markers fill stroke"
           id="path95" /><path
           id="path92"
           style="fill:#ffffff;stroke:#020202;stroke-width:0.084115;stroke-linecap:round;stroke-linejoin:bevel;paint-order:markers fill stroke"
           d="m 143.59485,125.18926 a 1.5041033,1.5041033 0 0 0 -1.10536,0.48731 1.5041033,1.5041033 0 0 0 -0.0294,0.03 l -13.36818,13.36766 -0.0408,0.0408 v 4.22713 11.63547 h 0.0594 v 0.37672 l 0.0408,0.0408 13.36818,13.36766 a 1.5041033,1.5041033 0 0 0 0.0289,0.03 1.5041033,1.5041033 0 0 0 1.10536,0.48731 h 5.2e-4 a 1.5041033,1.5041033 0 0 0 1.5043,-1.5043 1.5041033,1.5041033 0 0 0 -0.60668,-1.20717 l -12.42456,-12.42456 v -13.87822 l 12.36513,-12.36514 a 1.5041033,1.5041033 0 0 0 0.60668,-1.20716 1.5041033,1.5041033 0 0 0 -1.5043,-1.5043 z" /><path
           d="m 123.02608,137.0552 0.0413,-0.0413 h -0.0413 z"
           style="fill:#ffffff;stroke:#020202;stroke-width:0.089437;stroke-linecap:round;stroke-linejoin:bevel;paint-order:markers fill stroke"
           id="path100" /><path
           id="path97"
           style="fill:#ffffff;stroke:#020202;stroke-width:0.089437;stroke-linecap:round;stroke-linejoin:bevel;paint-order:markers fill stroke"
           d="m 140.63689,120.06244 a 1.5041033,1.5041033 0 0 0 -1.10536,0.48731 1.5041033,1.5041033 0 0 0 -0.0294,0.03 l -16.43466,16.43414 -0.0413,0.0413 v 4.22713 13.74283 h 0.0786 v 1.94355 l 0.0413,0.0413 16.43466,16.43414 a 1.5041033,1.5041033 0 0 0 0.0289,0.03 1.5041033,1.5041033 0 0 0 1.10536,0.4873 h 5.1e-4 a 1.5041033,1.5041033 0 0 0 1.5043,-1.5043 1.5041033,1.5041033 0 0 0 -0.60668,-1.20716 l -15.49724,-15.49724 v -16.75402 h -0.0785 v -0.7276 l 15.49724,-15.49725 a 1.5041033,1.5041033 0 0 0 0.60668,-1.20716 1.5041033,1.5041033 0 0 0 -1.5043,-1.5043 z" /></g><g
         id="sud"
         transform="translate(-52.098334,-96.750851)"
         style="fill:#ffffff"><path
           d="m 113.70747,183.34549 0.0682,0.0682 v -0.0682 z"
           style="fill:#ffffff;stroke:#020202;stroke-width:0.112173;stroke-linecap:round;stroke-linejoin:bevel;paint-order:markers fill stroke"
           id="path64-5" /><path
           d="m 113.74623,168.92467 0.0294,0.0294 v -0.0294 z"
           style="fill:#ffffff;stroke:#020202;stroke-width:0.112173;stroke-linecap:round;stroke-linejoin:bevel;paint-order:markers fill stroke"
           id="path69-3" /><path
           d="m 107.68975,179.47234 0.0372,0.0372 v -0.0372 z"
           style="fill:#ffffff;stroke:#020202;stroke-width:0.0762363;stroke-linecap:round;stroke-linejoin:bevel;paint-order:markers fill stroke"
           id="path86-43" /><path
           id="path87-2"
           style="fill:#ffffff;stroke:#020202;stroke-width:0.0762363;stroke-linecap:round;stroke-linejoin:bevel;paint-order:markers fill stroke"
           d="m 118.19195,190.59208 a 1.5041033,1.5041033 0 0 0 -0.48731,-1.10536 1.5041033,1.5041033 0 0 0 -0.03,-0.0295 l -8.24497,-8.24497 -1.70274,-1.70274 -0.0372,-0.0372 h -4.22662 -7.063649 l -1.70222,1.70222 -8.244965,8.24498 a 1.5041033,1.5041033 0 0 0 -0.03,0.0295 1.5041033,1.5041033 0 0 0 -0.4873,1.10535 1.5041033,1.5041033 0 0 0 1.504295,1.50431 1.5041033,1.5041033 0 0 0 1.20716,-0.60669 l 8.95501,-8.95501 h 8.886279 l 8.99273,8.99274 a 1.5041033,1.5041033 0 0 0 1.20716,0.60668 1.5041033,1.5041033 0 0 0 1.5043,-1.5043 z" /><path
           d="m 110.62084,173.53369 0.0408,0.0408 v -0.0408 z"
           style="fill:#ffffff;stroke:#020202;stroke-width:0.084115;stroke-linecap:round;stroke-linejoin:bevel;paint-order:markers fill stroke"
           id="path95-1" /><path
           id="path92-1"
           style="fill:#ffffff;stroke:#020202;stroke-width:0.084115;stroke-linecap:round;stroke-linejoin:bevel;paint-order:markers fill stroke"
           d="m 124.5466,188.0775 a 1.5041033,1.5041033 0 0 0 -0.48731,-1.10536 1.5041033,1.5041033 0 0 0 -0.03,-0.0294 l -13.36766,-13.36818 -0.0408,-0.0408 H 106.3937 94.758231 v 0.0594 h -0.37672 l -0.0408,0.0408 -13.367655,13.36818 a 1.5041033,1.5041033 0 0 0 -0.03,0.0289 1.5041033,1.5041033 0 0 0 -0.48731,1.10536 v 5.2e-4 a 1.5041033,1.5041033 0 0 0 1.5043,1.5043 1.5041033,1.5041033 0 0 0 1.20717,-0.60668 l 12.424555,-12.42456 h 13.878219 l 12.36514,12.36513 a 1.5041033,1.5041033 0 0 0 1.20716,0.60668 1.5041033,1.5041033 0 0 0 1.5043,-1.5043 z" /><path
           d="m 112.68066,167.50873 0.0413,0.0413 v -0.0413 z"
           style="fill:#ffffff;stroke:#020202;stroke-width:0.089437;stroke-linecap:round;stroke-linejoin:bevel;paint-order:markers fill stroke"
           id="path100-32" /><path
           id="path97-5"
           style="fill:#ffffff;stroke:#020202;stroke-width:0.089437;stroke-linecap:round;stroke-linejoin:bevel;paint-order:markers fill stroke"
           d="m 129.67342,185.11954 a 1.5041033,1.5041033 0 0 0 -0.48731,-1.10536 1.5041033,1.5041033 0 0 0 -0.03,-0.0294 l -16.43414,-16.43466 -0.0413,-0.0413 h -4.22713 -13.742829 v 0.0786 h -1.94355 l -0.0413,0.0413 -16.434135,16.43466 a 1.5041033,1.5041033 0 0 0 -0.03,0.0289 1.5041033,1.5041033 0 0 0 -0.4873,1.10536 v 5.1e-4 a 1.5041033,1.5041033 0 0 0 1.5043,1.5043 1.5041033,1.5041033 0 0 0 1.20716,-0.60668 l 15.497235,-15.49724 h 16.754019 v -0.0785 h 0.7276 l 15.49725,15.49724 a 1.5041033,1.5041033 0 0 0 1.20716,0.60668 1.5041033,1.5041033 0 0 0 1.5043,-1.5043 z" /></g><g
         id="nord"
         transform="translate(-52.040245,-96.750851)"
         style="fill:#ffffff"><path
           d="m 91.682307,111.00457 -0.0682,-0.0682 v 0.0682 z"
           style="fill:#ffffff;stroke:#020202;stroke-width:0.112173;stroke-linecap:round;stroke-linejoin:bevel;paint-order:markers fill stroke"
           id="path64-4" /><path
           d="m 91.643547,125.42539 -0.0294,-0.0294 v 0.0294 z"
           style="fill:#ffffff;stroke:#020202;stroke-width:0.112173;stroke-linecap:round;stroke-linejoin:bevel;paint-order:markers fill stroke"
           id="path69-4" /><path
           d="m 97.700027,114.87772 -0.0372,-0.0372 v 0.0372 z"
           style="fill:#ffffff;stroke:#020202;stroke-width:0.0762363;stroke-linecap:round;stroke-linejoin:bevel;paint-order:markers fill stroke"
           id="path86-4" /><path
           id="path87-4"
           style="fill:#ffffff;stroke:#020202;stroke-width:0.0762363;stroke-linecap:round;stroke-linejoin:bevel;paint-order:markers fill stroke"
           d="m 87.197827,103.75798 a 1.5041033,1.5041033 0 0 0 0.48731,1.10536 1.5041033,1.5041033 0 0 0 0.03,0.0295 l 8.24497,8.24497 1.70274,1.70274 0.0372,0.0372 h 4.226633 7.06365 l 1.70222,-1.70222 8.24497,-8.24498 a 1.5041033,1.5041033 0 0 0 0.03,-0.0295 1.5041033,1.5041033 0 0 0 0.4873,-1.10535 1.5041033,1.5041033 0 0 0 -1.5043,-1.50431 1.5041033,1.5041033 0 0 0 -1.20716,0.60669 l -8.95501,8.95501 h -8.886293 l -8.99273,-8.99274 a 1.5041033,1.5041033 0 0 0 -1.20716,-0.60668 1.5041033,1.5041033 0 0 0 -1.5043,1.5043 z" /><path
           d="m 94.768937,120.81637 -0.0408,-0.0408 v 0.0408 z"
           style="fill:#ffffff;stroke:#020202;stroke-width:0.084115;stroke-linecap:round;stroke-linejoin:bevel;paint-order:markers fill stroke"
           id="path95-2" /><path
           id="path92-9"
           style="fill:#ffffff;stroke:#020202;stroke-width:0.084115;stroke-linecap:round;stroke-linejoin:bevel;paint-order:markers fill stroke"
           d="m 80.843177,106.27256 a 1.5041033,1.5041033 0 0 0 0.48731,1.10536 1.5041033,1.5041033 0 0 0 0.03,0.0294 l 13.36766,13.36818 0.0408,0.0408 h 4.22713 11.635483 v -0.0594 h 0.37672 l 0.0408,-0.0408 13.36766,-13.36818 a 1.5041033,1.5041033 0 0 0 0.03,-0.0289 1.5041033,1.5041033 0 0 0 0.48731,-1.10536 v -5.2e-4 a 1.5041033,1.5041033 0 0 0 -1.5043,-1.5043 1.5041033,1.5041033 0 0 0 -1.20717,0.60668 l -12.42456,12.42456 H 95.919787 l -12.36514,-12.36513 a 1.5041033,1.5041033 0 0 0 -1.20716,-0.60668 1.5041033,1.5041033 0 0 0 -1.5043,1.5043 z" /><path
           d="m 92.709117,126.84133 -0.0413,-0.0413 v 0.0413 z"
           style="fill:#ffffff;stroke:#020202;stroke-width:0.089437;stroke-linecap:round;stroke-linejoin:bevel;paint-order:markers fill stroke"
           id="path100-3" /><path
           id="path97-0"
           style="fill:#ffffff;stroke:#020202;stroke-width:0.089437;stroke-linecap:round;stroke-linejoin:bevel;paint-order:markers fill stroke"
           d="m 75.716357,109.23052 a 1.5041033,1.5041033 0 0 0 0.48731,1.10536 1.5041033,1.5041033 0 0 0 0.03,0.0294 l 16.43414,16.43466 0.0413,0.0413 h 4.22713 13.742843 v -0.0786 h 1.94355 l 0.0413,-0.0413 16.43414,-16.43466 a 1.5041033,1.5041033 0 0 0 0.03,-0.0289 1.5041033,1.5041033 0 0 0 0.4873,-1.10536 v -5.1e-4 a 1.5041033,1.5041033 0 0 0 -1.5043,-1.5043 1.5041033,1.5041033 0 0 0 -1.20716,0.60668 l -15.49724,15.49724 H 94.652637 v 0.0785 h -0.7276 l -15.49725,-15.49724 a 1.5041033,1.5041033 0 0 0 -1.20716,-0.60668 1.5041033,1.5041033 0 0 0 -1.5043,1.5043 z" /></g><g
         id="ouest"
         transform="translate(-51.728563,-94.470006)"
         style="fill:#ffffff"><path
           d="m 66.416138,157.2027 -0.0682,0.0682 h 0.0682 z"
           style="fill:#ffffff;stroke:#020202;stroke-width:0.112173;stroke-linecap:round;stroke-linejoin:bevel;paint-order:markers fill stroke"
           id="path64-4-3" /><path
           d="m 80.836958,157.24146 -0.0294,0.0294 h 0.0294 z"
           style="fill:#ffffff;stroke:#020202;stroke-width:0.112173;stroke-linecap:round;stroke-linejoin:bevel;paint-order:markers fill stroke"
           id="path69-4-0" /><path
           d="m 70.289288,151.18498 -0.0372,0.0372 h 0.0372 z"
           style="fill:#ffffff;stroke:#020202;stroke-width:0.0762363;stroke-linecap:round;stroke-linejoin:bevel;paint-order:markers fill stroke"
           id="path86-4-8" /><path
           id="path87-4-2"
           style="fill:#ffffff;stroke:#020202;stroke-width:0.0762363;stroke-linecap:round;stroke-linejoin:bevel;paint-order:markers fill stroke"
           d="m 59.169552,161.68718 a 1.5041033,1.5041033 0 0 0 1.10536,-0.48731 1.5041033,1.5041033 0 0 0 0.0295,-0.03 l 8.244966,-8.24497 1.70274,-1.70274 0.0372,-0.0372 v -4.22664 -7.06365 l -1.70222,-1.70222 -8.244976,-8.24497 a 1.5041033,1.5041033 0 0 0 -0.0295,-0.03 1.5041033,1.5041033 0 0 0 -1.10535,-0.4873 1.5041033,1.5041033 0 0 0 -1.50431,1.5043 1.5041033,1.5041033 0 0 0 0.60669,1.20716 l 8.955006,8.95501 v 8.8863 l -8.992736,8.99273 a 1.5041033,1.5041033 0 0 0 -0.60668,1.20716 1.5041033,1.5041033 0 0 0 1.5043,1.5043 z" /><path
           d="m 76.227938,154.11607 -0.0408,0.0408 h 0.0408 z"
           style="fill:#ffffff;stroke:#020202;stroke-width:0.084115;stroke-linecap:round;stroke-linejoin:bevel;paint-order:markers fill stroke"
           id="path95-2-5" /><path
           id="path92-9-2"
           style="fill:#ffffff;stroke:#020202;stroke-width:0.084115;stroke-linecap:round;stroke-linejoin:bevel;paint-order:markers fill stroke"
           d="m 61.684128,168.04183 a 1.5041033,1.5041033 0 0 0 1.10536,-0.48731 1.5041033,1.5041033 0 0 0 0.0294,-0.03 l 13.36818,-13.36766 0.0408,-0.0408 v -4.22713 -11.63549 h -0.0594 v -0.37672 l -0.0408,-0.0408 -13.36818,-13.36766 a 1.5041033,1.5041033 0 0 0 -0.0289,-0.03 1.5041033,1.5041033 0 0 0 -1.10536,-0.48731 h -5.2e-4 a 1.5041033,1.5041033 0 0 0 -1.504296,1.5043 1.5041033,1.5041033 0 0 0 0.606676,1.20717 l 12.42456,12.42456 v 13.87824 l -12.36513,12.36514 a 1.5041033,1.5041033 0 0 0 -0.606676,1.20716 1.5041033,1.5041033 0 0 0 1.504296,1.5043 z" /><path
           d="m 82.252898,156.17589 -0.0413,0.0413 h 0.0413 z"
           style="fill:#ffffff;stroke:#020202;stroke-width:0.089437;stroke-linecap:round;stroke-linejoin:bevel;paint-order:markers fill stroke"
           id="path100-3-0" /><path
           id="path97-0-3"
           style="fill:#ffffff;stroke:#020202;stroke-width:0.089437;stroke-linecap:round;stroke-linejoin:bevel;paint-order:markers fill stroke"
           d="m 64.642088,173.16865 a 1.5041033,1.5041033 0 0 0 1.10536,-0.48731 1.5041033,1.5041033 0 0 0 0.0294,-0.03 l 16.43466,-16.43414 0.0413,-0.0413 v -4.22713 -13.74285 h -0.0786 v -1.94355 l -0.0413,-0.0413 -16.43466,-16.43414 a 1.5041033,1.5041033 0 0 0 -0.0289,-0.03 1.5041033,1.5041033 0 0 0 -1.10536,-0.4873 h -5.1e-4 a 1.5041033,1.5041033 0 0 0 -1.5043,1.5043 1.5041033,1.5041033 0 0 0 0.60668,1.20716 l 15.49724,15.49724 v 16.75404 h 0.0785 v 0.7276 l -15.49724,15.49725 a 1.5041033,1.5041033 0 0 0 -0.60668,1.20716 1.5041033,1.5041033 0 0 0 1.5043,1.5043 z" /></g><ellipse
         style="fill:none;fill-opacity:1;stroke:#020202;stroke-width:0.405;stroke-linecap:round;stroke-linejoin:bevel;stroke-dasharray:none;stroke-opacity:1;paint-order:markers fill stroke"
         id="path104"
         cx="50.625599"
         cy="50.74144"
         rx="48.703049"
         ry="49.087265" /></g></g></svg>
